{
  "asset": { "version": "2.0" },
  "scene": 0,
  "scenes": [{ "nodes": [0] }],
  "nodes": [{ "name": "TwoMaterials", "mesh": 0 }],
  "meshes": [
    {
      "primitives": [
        { "attributes": { "POSITION": 0 }, "material": 0 },
        { "attributes": { "POSITION": 1 }, "material": 1 }
      ]
    }
  ],
  "materials": [
    {
      "name": "ShinyMetal",
      "pbrMetallicRoughness": {
        "baseColorFactor": [0.9, 0.8, 0.2, 1.0],
        "metallicFactor": 1.0,
        "roughnessFactor": 0.1
      }
    },
    {
      "name": "RoughDielectric",
      "pbrMetallicRoughness": {
        "baseColorFactor": [0.8, 0.8, 0.85, 1.0],
        "metallicFactor": 0.0,
        "roughnessFactor": 0.9
      }
    }
  ],
  "accessors": [
    {
      "bufferView": 0,
      "byteOffset": 0,
      "componentType": 5126,
      "count": 3,
      "type": "VEC3",
      "min": [0.0, 0.0, 0.0],
      "max": [1.0, 1.0, 0.0]
    },
    {
      "bufferView": 0,
      "byteOffset": 36,
      "componentType": 5126,
      "count": 3,
      "type": "VEC3",
      "min": [2.0, 0.0, 0.0],
      "max": [3.0, 1.0, 0.0]
    }
  ],
  "bufferViews": [{ "buffer": 0, "byteOffset": 0, "byteLength": 72 }],
  "buffers": [
    {
      "byteLength": 72,
      "uri": "data:application/octet-stream;base64,"
    }
  ]
}
